<?xml version="1.0" encoding="UTF-8"?>
<svg version="1.1" xmlns="http://www.w3.org/2000/svg" width="225" height="225">
<path d="M0 0 C74.25 0 148.5 0 225 0 C225 74.25 225 148.5 225 225 C150.75 225 76.5 225 0 225 C0 150.75 0 76.5 0 0 Z " fill="#F1F1F1" transform="translate(0,0)"/>
<path d="M0 0 C2.14440042 0.00315353 4.28741123 -0.02029191 6.43164062 -0.0456543 C7.8066389 -0.0479283 9.18164085 -0.04863032 10.55664062 -0.04760742 C11.79849121 -0.05058838 13.0403418 -0.05356934 14.31982422 -0.05664062 C19.35990095 0.4851694 22.61826907 2.08777036 26.09570312 5.75317383 C28.67296422 9.66679254 28.90864297 12.91161401 28.92364502 17.5397644 C28.92935516 18.59677551 28.93506531 19.65378662 28.94094849 20.74282837 C28.94206635 21.89721405 28.9431842 23.05159973 28.94433594 24.2409668 C28.95178329 26.07081116 28.95178329 26.07081116 28.9593811 27.93762207 C28.97147773 31.28067266 28.97894452 34.6236608 28.98339176 37.96672583 C28.98632642 40.05664812 28.99043193 42.14656498 28.99489594 44.23648453 C29.00856265 50.7793344 29.01823378 57.32217179 29.02209783 63.86503494 C29.02657904 71.41074125 29.04413319 78.95626647 29.07309842 86.50191772 C29.09472847 92.33983952 29.10480278 98.17771041 29.10613894 104.01567185 C29.10718588 107.50014156 29.11306985 110.98444083 29.13095856 114.46886826 C29.15053006 118.356502 29.14614498 122.24390998 29.13964844 126.1315918 C29.15347061 127.85709763 29.15347061 127.85709763 29.16757202 129.61746216 C29.12303292 138.1159744 27.41186425 142.92147228 21.53320312 149.19067383 C18.06131391 152.93353976 14.68471412 156.72598551 11.38867188 160.62426758 C8.73118749 163.42400173 6.77322334 165.16501858 2.90820312 165.75317383 C-3.96829308 164.79046436 -8.08128357 159.56787375 -12.27929688 154.50317383 C-12.78267578 153.91213867 -13.28605469 153.32110352 -13.8046875 152.7121582 C-15.30564871 150.93158714 -16.78363483 149.15164177 -18.21679688 147.31567383 C-19.48248505 145.91397697 -19.48248505 145.91397697 -20.77374268 144.48396301 C-24.43290583 139.29864925 -23.92375233 133.74012461 -23.87963867 127.60668945 C-23.89000656 126.33919357 -23.90037445 125.07169769 -23.91105652 123.76579285 C-23.93801458 120.3048822 -23.93342873 116.84469506 -23.92135596 113.38372612 C-23.91420403 110.48857981 -23.92273772 107.59356557 -23.93126136 104.69842958 C-23.95118462 97.86645805 -23.94567682 91.03483669 -23.92358398 84.20288086 C-23.90121528 77.16626228 -23.91883039 70.13056092 -23.95663327 63.09402895 C-23.98790802 57.04025445 -23.99577122 50.98676327 -23.98467952 44.93291807 C-23.97820584 41.32257953 -23.98012968 37.71277015 -24.00400352 34.10249329 C-24.02927669 30.07597456 -24.00559208 26.05115675 -23.97729492 22.0246582 C-23.99101135 20.8358757 -24.00472778 19.6470932 -24.01885986 18.42228699 C-23.93009348 12.10196478 -23.41428313 8.1901415 -18.89318562 3.5954361 C-13.15075808 -0.78835741 -6.89766826 -0.02125994 0 0 Z " fill="#020101" transform="translate(196.216796875,48.684326171875)"/>
<path d="M0 0 C34.65 0 69.3 0 105 0 C105 20.13 105 40.26 105 61 C104.01 59.02 104.01 59.02 103 57 C100.32530139 53.12629856 98.48213551 51.39454621 94 50 C89.5742129 49.61248719 85.14810989 49.62837482 80.70776367 49.62939453 C78.57194361 49.62501935 76.43818974 49.58865527 74.30273438 49.55078125 C72.93229867 49.54491223 71.56185323 49.54094341 70.19140625 49.5390625 C68.95592041 49.53084473 67.72043457 49.52262695 66.44750977 49.51416016 C61.61161157 50.19565845 58.62416429 52.22179097 55.3543644 55.8017168 C53.67780537 58.52295752 53.6133212 60.20970078 53.59213257 63.39372253 C53.57789246 64.48846893 53.56365234 65.58321533 53.54898071 66.71113586 C53.54876923 67.9075621 53.54855774 69.10398834 53.54833984 70.33666992 C53.53081665 72.23243774 53.53081665 72.23243774 53.51293945 74.16650391 C53.4821775 77.63166484 53.47101922 81.09661926 53.46529722 84.56190276 C53.46093926 86.72959399 53.4525615 88.89723196 53.44279861 91.06490517 C53.4090521 98.63550166 53.39191794 106.20594236 53.38916016 113.77661133 C53.3861294 120.81941989 53.34573542 127.86134812 53.28801191 134.90390128 C53.24013142 140.96015726 53.21942798 147.0161238 53.21936953 153.07256776 C53.21883291 156.68540541 53.20738484 160.29738171 53.16819382 163.91002464 C53.12544831 167.94608659 53.13918911 171.98011141 53.15771484 176.01635742 C53.13726105 177.20266251 53.11680725 178.38896759 53.09573364 179.61122131 C53.19981212 187.87930301 55.33264666 192.08146084 61 198 C61.99304541 199.20932733 62.97804168 200.42538536 63.94921875 201.65234375 C64.86020245 202.74887434 65.77292755 203.84396085 66.6875 204.9375 C67.14705078 205.50017578 67.60660156 206.06285156 68.08007812 206.64257812 C71.38361852 210.58703363 73.7439569 212.53853664 78.75 213.5625 C86.41689343 212.23553768 91.48400809 204.48039001 96.375 198.875 C96.89916504 198.2773584 97.42333008 197.6797168 97.96337891 197.06396484 C100.69208488 193.85838036 102.72006549 191.08653789 104 187 C104.33 187 104.66 187 105 187 C105 199.54 105 212.08 105 225 C80.25 225 55.5 225 30 225 C31.94770884 223.70152744 33.92646812 222.44806155 35.9375 221.25 C40.10913689 218.18512392 42.36865364 214.89403909 44 210 C44.1005622 207.78610761 44.13939768 205.56926515 44.14717102 203.35310364 C44.15084771 202.67423165 44.1545244 201.99535965 44.1583125 201.29591578 C44.16934509 199.01603583 44.17319246 196.73620147 44.17700195 194.45629883 C44.18326698 192.82353572 44.18991382 191.19077404 44.19691467 189.55801392 C44.21795467 184.19102979 44.22831772 178.82404539 44.23828125 173.45703125 C44.24232898 171.60884778 44.2464459 169.76066447 44.25063133 167.91248131 C44.2696837 159.22854316 44.28391404 150.5446135 44.2922433 141.86065847 C44.30201312 131.84044901 44.32832575 121.82046061 44.36874419 111.80032903 C44.39891982 104.05328428 44.41371359 96.30630284 44.41702431 88.55920047 C44.41937337 83.93332182 44.42831476 79.30767932 44.45348549 74.68186378 C44.47679624 70.32746836 44.48098744 65.97346406 44.47072411 61.61902237 C44.47022935 60.02432261 44.47653217 58.42960341 44.49028015 56.83496284 C44.56692231 47.41504594 44.28490906 40.64454127 38.42044067 32.91923523 C37.91447357 32.41310196 37.40850647 31.90696869 36.88720703 31.38549805 C36.30625275 30.79516281 35.72529846 30.20482758 35.1267395 29.59660339 C34.20162064 28.68833549 34.20162064 28.68833549 33.2578125 27.76171875 C32.61182098 27.114272 31.96582947 26.46682526 31.30026245 25.79975891 C29.94181344 24.44295962 28.57845606 23.09105843 27.21044922 21.74389648 C25.12553333 19.6880259 23.06001614 17.61403246 20.99609375 15.53710938 C19.6677774 14.21502892 18.33838612 12.89402741 17.0078125 11.57421875 C16.39511505 10.95858566 15.7824176 10.34295258 15.15115356 9.70866394 C11.66799127 6.30073432 8.53262638 3.95700217 4 2 C2.68 1.34 1.36 0.68 0 0 Z " fill="#FBFBFB" transform="translate(120,0)"/>
<path d="M0 0 C29.4525 -0.0928125 29.4525 -0.0928125 59.5 -0.1875 C65.69201172 -0.21481201 71.88402344 -0.24212402 78.26367188 -0.27026367 C85.84472656 -0.28381348 85.84472656 -0.28381348 89.39758301 -0.28633118 C91.87058126 -0.29092763 94.34357293 -0.30145753 96.81652832 -0.31672668 C100.56986105 -0.33873617 104.32278412 -0.3417163 108.07617188 -0.34057617 C109.1715905 -0.3513705 110.26700912 -0.36216482 111.39562225 -0.37328625 C118.98841222 -0.34248218 125.91271114 0.46615504 131.703125 5.91015625 C132.6921582 6.83078857 132.6921582 6.83078857 133.70117188 7.77001953 C134.45978516 8.50591309 135.21839844 9.24180664 136 10 C136.96934799 10.92697605 137.93875299 11.85389249 138.90820312 12.78076172 C141.65191965 15.41908546 144.36377741 18.08795618 147.06494141 20.76977539 C148.19104535 21.88429525 149.32161852 22.99431695 150.45654297 24.09985352 C152.12168637 25.7220858 153.77295178 27.35739527 155.421875 28.99609375 C155.92297791 29.47968857 156.42408081 29.96328339 156.94036865 30.46153259 C164.18191172 37.74773384 165.51002232 44.45892504 165.54211426 54.50453186 C165.53433878 56.04013271 165.52614622 57.57573149 165.51757812 59.11132812 C165.52300424 60.7448336 165.53012964 62.37833418 165.53881836 64.01182556 C165.55699662 68.43129244 165.55000703 72.85038428 165.53730202 77.26985741 C165.52714577 81.90391393 165.53657497 86.53793923 165.54284668 91.17199707 C165.55011545 98.95277649 165.54055562 106.73340384 165.52148438 114.51416016 C165.4997171 123.49836874 165.50676902 132.48221418 165.52879 141.46641397 C165.54696597 149.19235791 165.54949159 156.91819279 165.53903532 164.64415121 C165.53281246 169.25314883 165.53193145 173.86197599 165.54518127 178.47096252 C165.5567712 182.80496202 165.54865701 187.13849519 165.52560425 191.47244453 C165.52033388 193.05906463 165.52180221 194.64572426 165.53065491 196.23232841 C165.61599236 213.08586532 165.61599236 213.08586532 159.58820343 219.50298309 C154.65116589 223.94270502 150.22386815 225.2514207 143.70414734 225.24050903 C141.80459683 225.24464152 141.80459683 225.24464152 139.86667156 225.2488575 C138.46539407 225.24176472 137.0641175 225.23448894 135.6628418 225.22705078 C134.16038683 225.22643787 132.65793128 225.22670551 131.15547657 225.2277813 C127.13629892 225.22823234 123.11724064 225.21665063 119.09809113 225.20256042 C115.32503386 225.19116055 111.55200545 225.19063364 107.77893066 225.18920898 C96.748438 225.17871928 85.71796749 225.15079692 74.6875 225.125 C37.7171875 225.063125 37.7171875 225.063125 0 225 C0 150.75 0 76.5 0 0 Z M8.36454391 13.1521349 C6.63498616 16.76180046 6.58305873 19.93261018 6.61904907 23.84996033 C6.6143691 24.63404111 6.60968913 25.41812189 6.60486734 26.2259627 C6.5929135 28.84995188 6.60237601 31.47341917 6.61181641 34.09741211 C6.60775084 35.98001917 6.60240905 37.86262385 6.59588623 39.745224 C6.5822041 44.85679747 6.58751527 49.96818937 6.59702349 55.07976604 C6.60461652 60.42879779 6.59757536 65.77781395 6.59286499 71.12684631 C6.58740594 80.11087841 6.59460251 89.09483655 6.60888672 98.07885742 C6.62520853 108.46432742 6.6199287 118.84962068 6.6034075 129.23508638 C6.58979101 138.15157074 6.58787394 147.06800192 6.59572351 155.98449332 C6.60039975 161.30996793 6.60102628 166.6353595 6.59111404 171.96082878 C6.5824445 176.96855116 6.5884662 181.97604587 6.60579681 186.98374367 C6.60976191 188.8211517 6.60862721 190.65857891 6.60200882 192.49597931 C6.59380402 195.00526309 6.60410183 197.51381857 6.61904907 200.02305603 C6.60901082 201.11231767 6.60901082 201.11231767 6.59876978 202.22358459 C6.66730151 208.16002651 8.1443416 212.17944173 12.38781738 216.34265137 C17.81235022 218.83154604 22.89346115 218.55698246 28.79492188 218.51757812 C30.08338516 218.5245874 31.37184845 218.53159668 32.69935608 218.53881836 C36.22217267 218.55700512 39.74451904 218.55000383 43.26734352 218.53730202 C46.96010192 218.52715004 50.65282101 218.53657378 54.34558105 218.54284668 C60.54605308 218.55011673 66.74633431 218.54055241 72.94677734 218.52148438 C80.10761604 218.49971669 87.26799914 218.50676852 94.42882681 218.52879 C100.58529344 218.54696247 106.7416232 218.54949335 112.89810801 218.53903532 C116.57146576 218.53281047 120.24460961 218.53193675 123.91795349 218.54518127 C128.01393461 218.55891899 132.10913464 218.53986018 136.20507812 218.51757812 C138.02405357 218.52972351 138.02405357 218.52972351 139.879776 218.54211426 C148.2584034 218.46280989 148.2584034 218.46280989 155 214 C157.95206681 209.97883616 158.3721194 207.12001643 158.36076355 202.1726532 C158.36332682 201.49867849 158.3658901 200.82470378 158.36853105 200.13030559 C158.37345987 197.87918637 158.35699174 195.62874264 158.34057617 193.37768555 C158.3397297 191.7612052 158.34020543 190.1447237 158.34190369 188.52824402 C158.34276429 184.14428121 158.32512806 179.76056473 158.30418181 175.37665915 C158.28542582 170.79358402 158.28366542 166.21050322 158.28010559 161.62739563 C158.27078196 152.9505957 158.24616386 144.27390919 158.21605712 135.59715921 C158.18252302 125.7181662 158.16602959 115.83916776 158.15097082 105.960132 C158.11961461 85.6400247 158.0668479 65.3200195 158 45 C157.31486328 44.99589111 156.62972656 44.99178223 155.92382812 44.98754883 C152.78171011 44.95439853 149.64147628 44.88373115 146.5 44.8125 C145.42234375 44.80669922 144.3446875 44.80089844 143.234375 44.79492188 C136.28774362 44.60431309 131.3102726 43.67819696 126 39 C121.98875764 33.96023396 120.9399513 30.09594625 120.68359375 23.796875 C120.64169922 22.8171875 120.59980469 21.8375 120.55664062 20.828125 C120.51732422 19.81234375 120.47800781 18.7965625 120.4375 17.75 C120.39431641 16.71875 120.35113281 15.6875 120.30664062 14.625 C120.20074318 12.0834613 120.09866557 9.54182804 120 7 C106.54376758 6.90731653 93.08761111 6.83624307 79.6311245 6.79275131 C73.38271179 6.77187735 67.13451748 6.74356253 60.88623047 6.69824219 C54.85619586 6.65477863 48.82637133 6.63086145 42.79619217 6.62049103 C40.49567991 6.61310066 38.19517914 6.59866907 35.89475632 6.57707977 C32.67226064 6.54803987 29.45063283 6.54404436 26.22802734 6.54589844 C25.27712219 6.53151733 24.32621704 6.51713623 23.34649658 6.50231934 C16.78077933 6.54319085 12.53798981 7.66019988 8.36454391 13.1521349 Z " fill="#020202" transform="translate(0,0)"/>
<path d="M0 0 C2.64 0 5.28 0 8 0 C8.09344063 21.27927716 8.16397791 42.5585205 8.20724869 63.8379612 C8.22787407 73.71837853 8.25599426 83.59866839 8.30175781 93.47900391 C8.34162625 102.0906916 8.36743299 110.70228697 8.37635398 119.31406438 C8.38156871 123.87398861 8.39382474 128.43364873 8.42292023 132.99348831 C8.45008945 137.28626289 8.45844198 141.57866479 8.45243073 145.87151718 C8.45353029 147.44609859 8.46147539 149.02069258 8.4768219 150.59519958 C8.49677453 152.74805484 8.49192146 154.89950988 8.48101807 157.05239868 C8.48470524 158.25626032 8.48839241 159.46012196 8.49219131 160.70046425 C7.74045275 165.73994423 5.60516334 168.75941604 1.60315418 171.85245228 C-1.36321002 173.16011377 -3.41590645 173.36992661 -6.65046692 173.36076355 C-7.77642273 173.36488754 -8.90237854 173.36901154 -10.06245422 173.3732605 C-11.28812607 173.36247467 -12.51379791 173.35168884 -13.77661133 173.34057617 C-15.07456635 173.34101425 -16.37252136 173.34145233 -17.70980835 173.34190369 C-21.26117712 173.34276327 -24.81224097 173.32514374 -28.36353898 173.30418181 C-32.07776732 173.28540876 -35.7920029 173.28366408 -39.50627136 173.28010559 C-46.53624166 173.27078696 -53.56607175 173.24617569 -60.59598035 173.21605712 C-68.60076095 173.18250741 -76.6055483 173.16602568 -84.61038172 173.15097082 C-101.07366985 173.11962592 -117.53681702 173.06686903 -134 173 C-134 172.67 -134 172.34 -134 172 C-133.33278018 171.99945523 -132.66556036 171.99891047 -131.97812176 171.99834919 C-115.75383451 171.98339117 -99.52987595 171.94098446 -83.30575085 171.86790943 C-75.45990569 171.83323507 -67.61423668 171.80790073 -59.76831055 171.80444336 C-52.93091204 171.80140683 -46.09382703 171.7809588 -39.25654966 171.73947543 C-35.63512569 171.71811484 -32.01414772 171.70556012 -28.39266014 171.71384621 C-24.35272206 171.72276383 -20.31397976 171.692814 -16.27416992 171.65942383 C-15.06935974 171.66804947 -13.86454956 171.67667511 -12.62322998 171.68556213 C-11.52526596 171.67027466 -10.42730194 171.65498718 -9.29606628 171.63923645 C-7.8622173 171.63508838 -7.8622173 171.63508838 -6.39940166 171.63085651 C-3.82149034 171.19637579 -3.82149034 171.19637579 -2.19391632 168.89150238 C-0.76520167 165.43135048 -0.61542177 162.84060149 -0.60127258 159.09672546 C-0.59462576 158.41458365 -0.58797893 157.73244183 -0.58113068 157.02962905 C-0.56252403 154.75096363 -0.56510429 152.47282437 -0.56762695 150.1940918 C-0.55860834 148.55789957 -0.54828087 146.92171412 -0.53674316 145.28553772 C-0.50915866 140.84794096 -0.49988668 136.41047236 -0.49388909 131.97280097 C-0.48450921 127.33360701 -0.45830612 122.69450891 -0.43388367 118.05537415 C-0.39020438 109.27239977 -0.36166618 100.48944398 -0.33856028 91.70639402 C-0.31151629 81.70641321 -0.26760428 71.70652878 -0.22227156 61.70661676 C-0.1294048 41.13779634 -0.05773334 20.56894707 0 0 Z " fill="#C0C7CB" transform="translate(150,45)"/>
<path d="M0 0 C3.66373268 2.90232124 5.83904088 5.69038179 6.49609375 10.3203125 C6.58563957 16.06915443 6.10858675 19.45630137 2.16015625 23.953125 C-1.84081252 27.46912786 -5.43839488 28.31869938 -10.78125 28.23046875 C-15.43254917 27.60382313 -18.15208237 24.69518333 -21.21484375 21.390625 C-23.52441139 16.50500116 -23.85496554 12.25944346 -22.83984375 6.953125 C-20.72641666 2.88550162 -18.03553646 0.59082778 -14.02734375 -1.546875 C-9.16038419 -2.31031964 -4.4004568 -2.50386926 0 0 Z " fill="#060604" transform="translate(45.83984375,137.046875)"/>
<path d="M0 0 C2.64 0 5.28 0 8 0 C8 28.71 8 57.42 8 87 C5.36 87 2.72 87 0 87 C0 58.29 0 29.58 0 0 Z " fill="#F0CE00" transform="translate(195,97)"/>
<path d="M0 0 C2.64 0 5.28 0 8 0 C8 28.71 8 57.42 8 87 C5.36 87 2.72 87 0 87 C0 58.29 0 29.58 0 0 Z " fill="#EECD00" transform="translate(180,97)"/>
<path d="M0 0 C2.64 0 5.28 0 8 0 C8 28.71 8 57.42 8 87 C5.36 87 2.72 87 0 87 C0 58.29 0 29.58 0 0 Z " fill="#F0B607" transform="translate(210,97)"/>
<path d="M0 0 C3.90993968 2.0421341 6.3778444 4.14832161 7.90234375 8.2734375 C8.57311642 13.20361659 8.56207765 17.70838659 6.27734375 22.2109375 C3.10853849 26.29702849 0.66844207 27.91303381 -4.49609375 28.5859375 C-8.81915253 28.79365204 -11.57788604 28.51914705 -15.53515625 26.6484375 C-19.87357923 22.6274601 -21.26376723 19.10392426 -21.53515625 13.2734375 C-21.37932363 8.56304244 -20.3179912 5.84191677 -17.09765625 2.2734375 C-12.40183622 -1.86993312 -5.77409076 -1.9999644 0 0 Z " fill="#050504" transform="translate(44.09765625,173.7265625)"/>
<path d="M0 0 C3.90993968 2.0421341 6.3778444 4.14832161 7.90234375 8.2734375 C8.57311642 13.20361659 8.56207765 17.70838659 6.27734375 22.2109375 C3.10853849 26.29702849 0.66844207 27.91303381 -4.49609375 28.5859375 C-8.81915253 28.79365204 -11.57788604 28.51914705 -15.53515625 26.6484375 C-19.87357923 22.6274601 -21.26376723 19.10392426 -21.53515625 13.2734375 C-21.37932363 8.56304244 -20.3179912 5.84191677 -17.09765625 2.2734375 C-12.40183622 -1.86993312 -5.77409076 -1.9999644 0 0 Z " fill="#050503" transform="translate(44.09765625,98.7265625)"/>
<path d="M0 0 C3.125 0.6875 3.125 0.6875 4.5546875 2.4453125 C5.42716773 3.88567926 6.25931088 5.35134756 7.046875 6.83984375 C7.99393048 8.84993997 7.99393048 8.84993997 10.125 9.6875 C10.393125 8.759375 10.66125 7.83125 10.9375 6.875 C12.64986188 2.27866022 12.64986188 2.27866022 15.125 0.6875 C18.125 0.25 18.125 0.25 21.125 0.6875 C24.07453129 3.68677409 24.50152675 5.90718281 24.48828125 10.0390625 C24.48763672 11.05484375 24.48699219 12.070625 24.48632812 13.1171875 C24.47021484 14.17164062 24.45410156 15.22609375 24.4375 16.3125 C24.44233398 17.90578125 24.44233398 17.90578125 24.44726562 19.53125 C24.39206138 27.42043862 24.39206138 27.42043862 22.125 29.6875 C17.56944444 29.13194444 17.56944444 29.13194444 16.125 27.6875 C15.89072222 25.67155418 15.71163876 23.649026 15.5625 21.625 C15.43681641 19.96791016 15.43681641 19.96791016 15.30859375 18.27734375 C15.24800781 17.42269531 15.18742187 16.56804687 15.125 15.6875 C13.805 17.9975 12.485 20.3075 11.125 22.6875 C8.875 22.625 8.875 22.625 6.125 21.6875 C4.44650176 19.4566525 3.36500737 17.21344094 2.125 14.6875 C2.06441406 15.68652344 2.00382812 16.68554688 1.94140625 17.71484375 C1.85761719 19.00519531 1.77382812 20.29554687 1.6875 21.625 C1.60628906 22.91277344 1.52507812 24.20054688 1.44140625 25.52734375 C1.125 28.6875 1.125 28.6875 0.125 29.6875 C-2.375 29.8125 -2.375 29.8125 -4.875 29.6875 C-7.46917075 27.09332925 -6.10963158 19.80113124 -6.125 16.3125 C-6.145625 15.14976563 -6.16625 13.98703125 -6.1875 12.7890625 C-6.19265625 11.6753125 -6.1978125 10.5615625 -6.203125 9.4140625 C-6.2124707 8.38877441 -6.22181641 7.36348633 -6.23144531 6.30712891 C-5.875 3.6875 -5.875 3.6875 -4.53417969 1.87255859 C-2.875 0.6875 -2.875 0.6875 0 0 Z " fill="#070707" transform="translate(114.875,52.3125)"/>
<path d="M0 0 C1.07804649 -0.00503792 1.07804649 -0.00503792 2.1778717 -0.01017761 C4.56529445 -0.01971471 6.95264726 -0.0216321 9.34008789 -0.02270508 C10.992966 -0.02591576 12.64584382 -0.02927968 14.29872131 -0.03279114 C17.76816466 -0.03878933 21.23758308 -0.04063033 24.70703125 -0.04003906 C29.16061581 -0.0399374 33.61404107 -0.05359035 38.06758785 -0.07081127 C41.48271932 -0.08191029 44.89781201 -0.08395892 48.31295967 -0.08342934 C49.95526237 -0.0846126 51.59756596 -0.08905364 53.239851 -0.0967617 C55.53371321 -0.10651946 57.82722635 -0.10370046 60.12109375 -0.09765625 C61.42823837 -0.09908127 62.735383 -0.10050629 64.08213806 -0.10197449 C67.12524414 0.14526367 67.12524414 0.14526367 69.12524414 2.14526367 C68.56968859 6.70081923 68.56968859 6.70081923 67.12524414 8.14526367 C64.8355531 8.25025272 62.54257532 8.28383926 60.25048828 8.29052734 C59.17244179 8.29556526 59.17244179 8.29556526 58.07261658 8.30070496 C55.68519384 8.31024206 53.29784102 8.31215944 50.91040039 8.31323242 C49.25752228 8.3164431 47.60464446 8.31980703 45.95176697 8.32331848 C42.48232362 8.32931667 39.0129052 8.33115768 35.54345703 8.33056641 C31.08987247 8.33046475 26.63644721 8.34411769 22.18290043 8.36133862 C18.76776897 8.37243764 15.35267627 8.37448626 11.93752861 8.37395668 C10.29522591 8.37513994 8.65292232 8.37958099 7.01063728 8.38728905 C4.71677507 8.3970468 2.42326193 8.39422781 0.12939453 8.38818359 C-1.8313224 8.39032112 -1.8313224 8.39032112 -3.83164978 8.39250183 C-6.87475586 8.14526367 -6.87475586 8.14526367 -8.87475586 6.14526367 C-8.06316596 -0.50977351 -6.39993072 0.01867437 0 0 Z " fill="#131313" transform="translate(72.874755859375,190.854736328125)"/>
<path d="M0 0 C1.07804649 -0.00503792 1.07804649 -0.00503792 2.1778717 -0.01017761 C4.56529445 -0.01971471 6.95264726 -0.0216321 9.34008789 -0.02270508 C10.992966 -0.02591576 12.64584382 -0.02927968 14.29872131 -0.03279114 C17.76816466 -0.03878933 21.23758308 -0.04063033 24.70703125 -0.04003906 C29.16061581 -0.0399374 33.61404107 -0.05359035 38.06758785 -0.07081127 C41.48271932 -0.08191029 44.89781201 -0.08395892 48.31295967 -0.08342934 C49.95526237 -0.0846126 51.59756596 -0.08905364 53.239851 -0.0967617 C55.53371321 -0.10651946 57.82722635 -0.10370046 60.12109375 -0.09765625 C61.42823837 -0.09908127 62.735383 -0.10050629 64.08213806 -0.10197449 C67.12524414 0.14526367 67.12524414 0.14526367 69.12524414 2.14526367 C68.56968859 6.70081923 68.56968859 6.70081923 67.12524414 8.14526367 C64.8355531 8.25025272 62.54257532 8.28383926 60.25048828 8.29052734 C59.17244179 8.29556526 59.17244179 8.29556526 58.07261658 8.30070496 C55.68519384 8.31024206 53.29784102 8.31215944 50.91040039 8.31323242 C49.25752228 8.3164431 47.60464446 8.31980703 45.95176697 8.32331848 C42.48232362 8.32931667 39.0129052 8.33115768 35.54345703 8.33056641 C31.08987247 8.33046475 26.63644721 8.34411769 22.18290043 8.36133862 C18.76776897 8.37243764 15.35267627 8.37448626 11.93752861 8.37395668 C10.29522591 8.37513994 8.65292232 8.37958099 7.01063728 8.38728905 C4.71677507 8.3970468 2.42326193 8.39422781 0.12939453 8.38818359 C-1.8313224 8.39032112 -1.8313224 8.39032112 -3.83164978 8.39250183 C-6.87475586 8.14526367 -6.87475586 8.14526367 -8.87475586 6.14526367 C-8.06316596 -0.50977351 -6.39993072 0.01867437 0 0 Z " fill="#101010" transform="translate(72.874755859375,115.854736328125)"/>
<path d="M0 0 C0.70548981 0.00202423 1.41097961 0.00404846 2.1378479 0.00613403 C3.24756454 0.00350555 3.24756454 0.00350555 4.37969971 0.00082397 C6.83686638 -0.00359453 9.29396168 -0.00065657 11.75112915 0.00271606 C13.45124322 0.00204302 15.1513572 0.001073 16.85147095 -0.00018311 C20.41926996 -0.00166008 23.98704398 0.00049445 27.55484009 0.00515747 C32.13851409 0.01085476 36.72212954 0.00757575 41.30580139 0.00158501 C44.81782476 -0.00202063 48.32983414 -0.00088201 51.84185791 0.0017128 C53.53243008 0.00238206 55.22300351 0.00155367 56.91357422 -0.00076675 C59.27222072 -0.00329332 61.6307711 0.00054735 63.9894104 0.00613403 C64.69490021 0.0041098 65.40039001 0.00208557 66.1272583 0 C70.94936644 0.02126585 70.94936644 0.02126585 72.06362915 1.13552856 C72.18862915 3.63552856 72.18862915 3.63552856 72.06362915 6.13552856 C70.39300826 7.80614945 68.35809089 7.26121899 66.1272583 7.27105713 C65.42176849 7.2690329 64.71627869 7.26700867 63.9894104 7.2649231 C63.2495993 7.26667542 62.50978821 7.26842773 61.74755859 7.27023315 C59.29039192 7.27465166 56.83329662 7.2717137 54.37612915 7.26834106 C52.67601508 7.2690141 50.9759011 7.26998413 49.27578735 7.27124023 C45.70798834 7.27271721 42.14021432 7.27056268 38.57241821 7.26589966 C33.98874421 7.26020237 29.40512876 7.26348138 24.82145691 7.26947212 C21.30943355 7.27307776 17.79742417 7.27193914 14.28540039 7.26934433 C12.59482822 7.26867507 10.90425479 7.26950346 9.21368408 7.27182388 C6.85503758 7.27435045 4.4964872 7.27050978 2.1378479 7.2649231 C1.43235809 7.26694733 0.72686829 7.26897156 0 7.27105713 C-4.82210814 7.24979128 -4.82210814 7.24979128 -5.93637085 6.13552856 C-6.06137085 3.63552856 -6.06137085 3.63552856 -5.93637085 1.13552856 C-4.26574996 -0.53509232 -2.23083259 0.00983814 0 0 Z " fill="#010101" transform="translate(69.93637084960938,153.86447143554688)"/>
<path d="M0 0 C0.76183594 -0.00515625 1.52367188 -0.0103125 2.30859375 -0.015625 C5.97339392 0.41627519 7.84272371 1.43944111 10.296875 4.203125 C12.1953894 8.77362262 11.91818469 13.10547793 11.8125 18 C11.80734375 18.97066406 11.8021875 19.94132812 11.796875 20.94140625 C11.71682726 28.09567274 11.71682726 28.09567274 10.5625 29.25 C8.0625 29.375 8.0625 29.375 5.5625 29.25 C4.5625 28.25 4.5625 28.25 4.5 25.1875 C4.5309375 23.7334375 4.5309375 23.7334375 4.5625 22.25 C1.9225 22.25 -0.7175 22.25 -3.4375 22.25 C-3.416875 23.219375 -3.39625 24.18875 -3.375 25.1875 C-3.4375 28.25 -3.4375 28.25 -4.4375 29.25 C-6.9375 29.375 -6.9375 29.375 -9.4375 29.25 C-11.78537906 26.90212094 -10.67076371 21.1506075 -10.6875 18 C-10.708125 17.04480469 -10.72875 16.08960937 -10.75 15.10546875 C-10.79966733 6.17776558 -10.79966733 6.17776558 -7.4375 2.25 C-4.32763793 0.17675862 -3.54641613 -0.02392186 0 0 Z " fill="#020202" transform="translate(89.4375,52.75)"/>
<path d="M0 0 C1.9190918 -0.01643555 1.9190918 -0.01643555 3.87695312 -0.03320312 C13.00627733 0.03868132 13.00627733 0.03868132 16.33374023 1.91040039 C17.9375 4.5625 17.9375 4.5625 17.9375 15.5625 C5.7275 15.5625 -6.4825 15.5625 -19.0625 15.5625 C-19.0625 5.5625 -19.0625 5.5625 -17.44140625 2.47265625 C-11.89346203 -0.66369603 -6.25206886 -0.11689063 0 0 Z " fill="#ED304B" transform="translate(199.0625,55.4375)"/>
<path d="M0 0 C12.54 0 25.08 0 38 0 C38 3.96 38 7.92 38 12 C25.46 12 12.92 12 0 12 C0 8.04 0 4.08 0 0 Z " fill="#9A9A9A" transform="translate(180,78)"/>
<path d="M0 0 C2.25 -0.375 2.25 -0.375 5 0 C7.1875 3 7.1875 3 9 6 C9.66 6 10.32 6 11 6 C11.598125 5.01 12.19625 4.02 12.8125 3 C13.8953125 1.515 13.8953125 1.515 15 0 C17.75 -0.375 17.75 -0.375 20 0 C20.8125 2 20.8125 2 21 5 C19.91796875 6.9375 19.91796875 6.9375 18.5 9 C16.4034674 12.03134126 16.4034674 12.03134126 15.9375 15.625 C16.9995661 18.20544832 16.9995661 18.20544832 19.125 21 C21 24 21 24 20.75 26.875 C20.5025 27.57625 20.255 28.2775 20 29 C17.75 29.375 17.75 29.375 15 29 C12.8125 26 12.8125 26 11 23 C10.34 23 9.68 23 9 23 C8.401875 23.99 7.80375 24.98 7.1875 26 C6.465625 26.99 5.74375 27.98 5 29 C2.25 29.375 2.25 29.375 0 29 C-0.8125 27 -0.8125 27 -1 24 C0.08203125 22.0625 0.08203125 22.0625 1.5 20 C3.5965326 16.96865874 3.5965326 16.96865874 4.0625 13.375 C3.0004339 10.79455168 3.0004339 10.79455168 0.875 8 C-1 5 -1 5 -0.75 2.125 C-0.5025 1.42375 -0.255 0.7225 0 0 Z " fill="#050505" transform="translate(50,53)"/>
<path d="M0 0 C1.90845703 0.04060547 1.90845703 0.04060547 3.85546875 0.08203125 C5.31919922 0.13423828 5.31919922 0.13423828 6.8125 0.1875 C7.4375 2.5625 7.4375 2.5625 7.8125 5.1875 C5.8125 7.1875 5.8125 7.1875 3.6484375 7.3828125 C2.43027344 7.34800781 2.43027344 7.34800781 1.1875 7.3125 C0.37023438 7.29445313 -0.44703125 7.27640625 -1.2890625 7.2578125 C-1.91554688 7.23460937 -2.54203125 7.21140625 -3.1875 7.1875 C-3.1875 8.5075 -3.1875 9.8275 -3.1875 11.1875 C-1.8675 11.8475 -0.5475 12.5075 0.8125 13.1875 C0.5 15.125 0.5 15.125 -0.1875 17.1875 C-1.1775 17.5175 -2.1675 17.8475 -3.1875 18.1875 C-3.1875 19.5075 -3.1875 20.8275 -3.1875 22.1875 C-2.24777344 22.15269531 -2.24777344 22.15269531 -1.2890625 22.1171875 C-0.47179688 22.09914063 0.34546875 22.08109375 1.1875 22.0625 C2.40566406 22.02769531 2.40566406 22.02769531 3.6484375 21.9921875 C5.8125 22.1875 5.8125 22.1875 7.8125 24.1875 C7.4375 26.8125 7.4375 26.8125 6.8125 29.1875 C4.54225032 29.26847324 2.27117925 29.32667704 0 29.375 C-1.89685547 29.42720703 -1.89685547 29.42720703 -3.83203125 29.48046875 C-7.1875 29.1875 -7.1875 29.1875 -8.87231445 27.99536133 C-10.64080702 25.56438166 -10.57504426 23.95868628 -10.5859375 20.96875 C-10.58980469 19.95425781 -10.59367187 18.93976563 -10.59765625 17.89453125 C-10.58605469 16.83621094 -10.57445313 15.77789062 -10.5625 14.6875 C-10.57410156 13.62917969 -10.58570312 12.57085937 -10.59765625 11.48046875 C-10.59185547 9.95873047 -10.59185547 9.95873047 -10.5859375 8.40625 C-10.58255371 7.47748047 -10.57916992 6.54871094 -10.57568359 5.59179688 C-10.1875 3.1875 -10.1875 3.1875 -8.87231445 1.37963867 C-6.08665672 -0.59143316 -3.33081163 -0.09167371 0 0 Z " fill="#040404" transform="translate(33.1875,52.8125)"/>
<path d="M0 0 C34.32 0 68.64 0 104 0 C104.33 7.26 104.66 14.52 105 22 C107.30816481 28.73818398 107.30816481 28.73818398 111 34 C110.01 34.495 110.01 34.495 109 35 C102.03799752 31.64792473 98.9251716 28.31292901 96 21 C96 14.4 96 7.8 96 1 C64.32 1 32.64 1 0 1 C0 0.67 0 0.34 0 0 Z " fill="#BDC3C6" transform="translate(16,7)"/>
<path d="M0 0 C0.66 0 1.32 0 2 0 C3.234375 1.2578125 3.234375 1.2578125 4.75 3.125 C8.40763248 7.4349491 12.31961927 11.44156506 16.3125 15.4375 C16.93543945 16.06479004 17.55837891 16.69208008 18.20019531 17.33837891 C19.08529785 18.22082275 19.08529785 18.22082275 19.98828125 19.12109375 C20.51977783 19.6514624 21.05127441 20.18183105 21.59887695 20.72827148 C22.99388405 22.10943585 22.99388405 22.10943585 25 23 C25 23.66 25 24.32 25 25 C22.45716766 25.10871967 19.91904912 25.18762401 17.375 25.25 C16.66214844 25.28351562 15.94929687 25.31703125 15.21484375 25.3515625 C10.01847288 25.44690875 7.02877599 24.56800689 3 21 C-0.06457358 16.46417412 -0.38895357 12.45577152 -0.1875 7.125 C-0.17396484 6.43664062 -0.16042969 5.74828125 -0.14648438 5.0390625 C-0.1114837 3.35902999 -0.05768954 1.6794065 0 0 Z " fill="#949494" transform="translate(127,13)"/>
<path d="M0 0 C9.24 0 18.48 0 28 0 C24.07205456 5.23726059 20.27498403 10.11430397 16 15 C11.58201331 14.73346698 9.57314015 12.96504984 6.65039062 9.74414062 C6.16763672 9.18919922 5.68488281 8.63425781 5.1875 8.0625 C4.68541016 7.51142578 4.18332031 6.96035156 3.66601562 6.39257812 C0 2.28763818 0 2.28763818 0 0 Z " fill="#F5D6AA" transform="translate(185,191)"/>
<path d="M0 0 C2.875 1.625 2.875 1.625 5 4 C5.625 6.9375 5.625 6.9375 5 10 C2.51877621 13.35694984 1.05634831 14.78441871 -3.0625 15.625 C-6 15 -6 15 -8.375 12.875 C-10.28071139 9.50335677 -10.64850195 7.80994895 -10 4 C-7.20900702 -0.07914358 -4.82277608 -0.78739201 0 0 Z " fill="#9DBC00" transform="translate(40,180)"/>
<path d="M0 0 C2.875 1.625 2.875 1.625 5 4 C5.625 6.9375 5.625 6.9375 5 10 C2.51877621 13.35694984 1.05634831 14.78441871 -3.0625 15.625 C-6 15 -6 15 -8.375 12.875 C-10.28071139 9.50335677 -10.64850195 7.80994895 -10 4 C-7.20900702 -0.07914358 -4.82277608 -0.78739201 0 0 Z " fill="#9EBD00" transform="translate(40,105)"/>
<path d="M0 0 C1.94140625 0.3828125 1.94140625 0.3828125 4.44140625 2.0078125 C6.39703107 5.10421846 6.54165102 6.78134385 5.94140625 10.3828125 C4.37890625 12.7578125 4.37890625 12.7578125 1.94140625 14.3828125 C-2.03346992 14.95065195 -4.12348596 15.00621769 -7.49609375 12.7578125 C-9.51791688 9.68464135 -9.58614892 8.00033369 -9.05859375 4.3828125 C-7.2132127 0.00003251 -4.58703454 -0.25342732 0 0 Z " fill="#9DBC00" transform="translate(39.05859375,142.6171875)"/>
<path d="M0 0 C1.26714844 -0.01417969 2.53429687 -0.02835938 3.83984375 -0.04296875 C7.0625 0.1875 7.0625 0.1875 9.0625 2.1875 C8.50694444 6.74305556 8.50694444 6.74305556 7.0625 8.1875 C4.75256618 8.31307162 2.43831464 8.36325729 0.125 8.375 C-1.14214844 8.38917969 -2.40929687 8.40335938 -3.71484375 8.41796875 C-6.9375 8.1875 -6.9375 8.1875 -8.9375 6.1875 C-8.12558059 -0.47023912 -6.40766736 0.03252623 0 0 Z " fill="#141414" transform="translate(72.9375,175.8125)"/>
<path d="M0 0 C1.26714844 -0.01417969 2.53429687 -0.02835937 3.83984375 -0.04296875 C7.0625 0.1875 7.0625 0.1875 9.0625 2.1875 C8.50694444 6.74305556 8.50694444 6.74305556 7.0625 8.1875 C4.75256618 8.31307162 2.43831464 8.36325729 0.125 8.375 C-1.14214844 8.38917969 -2.40929687 8.40335938 -3.71484375 8.41796875 C-6.9375 8.1875 -6.9375 8.1875 -8.9375 6.1875 C-8.12558059 -0.47023912 -6.40766736 0.03252623 0 0 Z " fill="#101010" transform="translate(72.9375,100.8125)"/>
<path d="M0 0 C12.54 0 25.08 0 38 0 C38 3.96 38 7.92 38 12 C35.36 12 32.72 12 30 12 C30 8.37 30 4.74 30 1 C20.1 1 10.2 1 0 1 C0 0.67 0 0.34 0 0 Z " fill="#5A5A5A" transform="translate(180,78)"/>
<path d="M0 0 C4.58312084 -0.11605098 9.16586449 -0.18720362 13.75 -0.25 C15.05195313 -0.28351562 16.35390625 -0.31703125 17.6953125 -0.3515625 C18.94570312 -0.36445312 20.19609375 -0.37734375 21.484375 -0.390625 C22.63647461 -0.41157227 23.78857422 -0.43251953 24.97558594 -0.45410156 C28.64274287 0.09650482 29.79675587 1.07032393 32 4 C32.390625 6.796875 32.390625 6.796875 32.25 9.75 C32.21390625 10.73484375 32.1778125 11.7196875 32.140625 12.734375 C32.09421875 13.48203125 32.0478125 14.2296875 32 15 C29.69 15 27.38 15 25 15 C24.93941406 14.22914062 24.87882812 13.45828125 24.81640625 12.6640625 C24.69072266 11.15972656 24.69072266 11.15972656 24.5625 9.625 C24.48128906 8.62726563 24.40007812 7.62953125 24.31640625 6.6015625 C24.15034374 4.02072387 24.15034374 4.02072387 23 2 C11.615 1.505 11.615 1.505 0 1 C0 0.67 0 0.34 0 0 Z " fill="#BA1B3B" transform="translate(185,56)"/>
<path d="M0 0 C1.12535156 0.00580078 1.12535156 0.00580078 2.2734375 0.01171875 C3.02367188 0.00785156 3.77390625 0.00398437 4.546875 0 C10.14682697 0.01010822 10.14682697 0.01010822 11.2734375 1.13671875 C11.3984375 3.63671875 11.3984375 3.63671875 11.2734375 6.13671875 C9.45227747 7.95787878 6.96671986 7.26906955 4.546875 7.2734375 C3.79664062 7.26957031 3.04640625 7.26570312 2.2734375 7.26171875 C1.14808594 7.26751953 1.14808594 7.26751953 0 7.2734375 C-5.59995197 7.26332928 -5.59995197 7.26332928 -6.7265625 6.13671875 C-6.8515625 3.63671875 -6.8515625 3.63671875 -6.7265625 1.13671875 C-4.90540247 -0.68444128 -2.41984486 0.00436795 0 0 Z " fill="#050505" transform="translate(70.7265625,138.86328125)"/>
<path d="M0 0 C5.28 0 10.56 0 16 0 C14.02 0.99 14.02 0.99 12 2 C7.05086951 4.73781687 4.6945887 7.57723429 1.98046875 12.390625 C1.65691406 12.92171875 1.33335938 13.4528125 1 14 C0.67 14 0.34 14 0 14 C0 9.38 0 4.76 0 0 Z " fill="#F0F0F0" transform="translate(0,0)"/>
<path d="M0 0 C2 3 2 3 3.625 5.875 C6.24105776 9.31718127 8.67981224 10.92712041 12.390625 13.01953125 C12.92171875 13.34308594 13.4528125 13.66664063 14 14 C14 14.33 14 14.66 14 15 C9.38 15 4.76 15 0 15 C0 10.05 0 5.1 0 0 Z " fill="#F2F2F2" transform="translate(0,210)"/>
<path d="M0 0 C4.55555556 0.55555556 4.55555556 0.55555556 6 2 C6.04080783 3.99958364 6.04254356 6.00045254 6 8 C3.36 8 0.72 8 -2 8 C-2.125 5.125 -2.125 5.125 -2 2 C-1.34 1.34 -0.68 0.68 0 0 Z " fill="#DADADA" transform="translate(88,60)"/>
</svg>
